# xmcd
#
# Track frame offsets:
#	150
#	11106
#	27113
#	40618
#	53396
#	70494
#	87351
#	105882
#	120469
#	132936
#	151147
#
# Disc length: 2173 seconds
#
# Revision: 1
# Processed by: cddbd v1.5.2PL0 Copyright (c) Steve Scherf et al.
# Submitted via: audiograbber 1.83.01
#
DISCID=7a087b0b
DTITLE=The Western Swing Authority - Big Deal
DYEAR=1900
DGENRE=Country/Western
TTITLE0=Mississippi
TTITLE1=Dance with Who Brung Ya
TTITLE2=Extraordinary
TTITLE3=In the Middle of the Song
TTITLE4=Big Ball's in Cowtown
TTITLE5=Big Deal
TTITLE6=After the Leavin'
TTITLE7=Swingin' from the Rafters
TTITLE8=My Window Faces the South
TTITLE9=This Old Bar
TTITLE10=Christmas Bonus
EXTD=
EXTT0=
EXTT1=
EXTT2=
EXTT3=
EXTT4=
EXTT5=
EXTT6=
EXTT7=
EXTT8=
EXTT9=
EXTT10=
PLAYORDER=
